<?xml version="1.0" standalone="no"?><!DOCTYPE svg PUBLIC "-//W3C//DTD SVG 1.1//EN" "http://www.w3.org/Graphics/SVG/1.1/DTD/svg11.dtd"><svg class="icon" height="512" viewBox="0 0 1024 1024" version="1.1" xmlns="http://www.w3.org/2000/svg"><path d="M0.019398 0.038797M335.981069 315.248187c-1.808998 0-3.652128-0.273056-5.495258-0.853301a162.00204 162.00204 0 0 1-63.07601-38.466809 157.92895 157.92895 0 0 1 0-226.329558c63.656255-62.325105 167.315261-62.290973 231.005647 0a157.92895 157.92895 0 0 1 0 226.329558c-6.655748 6.51922-17.475605 6.51922-24.131352 0s-6.655748-17.134284 0-23.653504a124.877757 124.877757 0 0 0 0-178.988418c-50.344759-49.320798-132.295787-49.35493-182.742943 0a124.877757 124.877757 0 0 0 0 178.988418 128.882583 128.882583 0 0 0 49.935175 30.479912 16.656436 16.656436 0 0 1 10.683328 21.195997 17.111529 17.111529 0 0 1-16.178587 11.297705zM533.810374 328.901003c-4.403033 0-8.771934-1.638338-12.082743-4.915014a16.565417 16.565417 0 0 1 0-23.653503 189.648992 189.648992 0 0 0 0-271.793436 16.519907 16.519907 0 0 1 0-23.619372 17.327699 17.327699 0 0 1 24.131353 0 222.597788 222.597788 0 0 1 0 319.100443 16.952247 16.952247 0 0 1-12.04861 4.880882zM232.083139 328.901003c-4.368901 0-8.737802-1.638338-12.082742-4.915014a222.654675 222.654675 0 0 1 0-319.100443 17.327699 17.327699 0 0 1 24.131352 0c6.655748 6.485088 6.655748 17.100152 0 23.619372a189.705879 189.705879 0 0 0 0 271.793436 16.497153 16.497153 0 0 1 0 23.653503 16.690568 16.690568 0 0 1-12.04861 4.949146zM687.541082 1023.965868H446.466483c-97.822427 0-169.260787-158.09961-232.336797-297.665522-24.882257-55.020849-48.365101-107.07221-67.854496-133.968257-24.472673-33.756588-29.182894-98.88052 1.67247-129.15564 30.44578-29.763139 79.664182-30.684704 109.086-1.945526l60.413711 65.567649V176.330784c0-41.197372 39.866223-77.343203 85.330101-77.343203s85.3301 35.702114 85.3301 76.421638V365.934267a90.336133 90.336133 0 0 1 51.19806-16.212719c38.876394 0 73.691075 26.452331 82.940858 59.867598a91.087038 91.087038 0 0 1 54.065151-18.089981c38.603337 0 73.247358 26.384067 82.463009 59.73107a90.17685 90.17685 0 0 1 53.621435-17.953453c45.463877 0 85.3301 36.14583 85.3301 77.343203v226.124765c0 170.694333-193.494535 280.462974-201.686225 285.070799a17.566623 17.566623 0 0 1-8.498878 2.150319zM204.265526 473.006477c-11.639026 0-23.107391 4.949146-32.186513 13.89174-17.543869 17.202548-13.584552 64.611952 2.047922 86.149269 21.469053 29.626611 44.576444 80.654011 71.233568 139.804836 52.972926 117.27769 125.503511 277.834806 201.10598 277.834807h236.364378C709.010136 974.918126 863.560013 875.969342 863.560013 736.847147V510.722381c0-22.561279-24.882257-43.893804-51.19806-43.893804-26.759519 0-51.19806 20.479224-51.19806 43.006371 0 9.181519-7.645577 16.7247-17.06602 16.724699s-17.06602-7.543181-17.06602-16.724699v-40.958448c0-22.970863-24.199616-43.893804-50.754344-43.893804-24.336145 0-51.641777 18.39717-51.641777 43.006371 0 9.249783-7.645577 16.7247-17.06602 16.724699s-17.06602-7.474917-17.06602-16.724699v-40.958448c0-22.561279-24.882257-43.893804-51.19806-43.893804-26.793651 0-51.19806 20.513356-51.19806 43.00637 0 9.215651-7.645577 16.7247-17.06602 16.7247s-17.06602-7.509049-17.06602-16.7247V175.375087c0-22.527146-24.404409-43.006371-51.19806-43.006371-26.315803 0-51.19806 21.332525-51.198061 43.893804v394.054403c0 6.928804-4.334769 13.174967-10.956384 15.632474a17.441472 17.441472 0 0 1-18.806754-4.437165l-89.49421-97.276314a40.412335 40.412335 0 0 0-28.056537-11.229441z" /></svg>