<?xml version="1.0" encoding="utf-8"?>
<!-- Generator: Adobe Illustrator 27.0.0, SVG Export Plug-In . SVG Version: 6.00 Build 0)  -->
<svg version="1.1" id="Layer_2_00000119803361510131473470000005462910919305685418_"
	 xmlns="http://www.w3.org/2000/svg" xmlns:xlink="http://www.w3.org/1999/xlink" x="0px" y="0px" viewBox="0 0 141.7 107.2"
	 style="enable-background:new 0 0 141.7 107.2;" xml:space="preserve">
<style type="text/css">
	.st0{fill:#ED0F68;}
</style>
<g>
	<g>
		<path class="st0" d="M3.5,51.2V21.5H0v-6.2h3.5v-1.7C3.5,11.3,4,9,5.2,6.9s2.8-3.8,5-5c2-1.1,3.6-1.7,4.8-1.8
			C16.3,0,17.2,0,17.8,0c1.3,0,2.6,0.1,3.9,0.3l15.7,2.1l-0.8,6.1C24.9,6.9,18.7,6.2,18.1,6.2c-1.7,0-3.1,0.3-4.1,1
			c-2.1,1.4-3.2,3.2-3.2,5.5v2.8h3.5v6.2h-3.5v29.6H3.5V51.2z"/>
		<path class="st0" d="M35.9,51.2l-20.2-9.5v-3.9c0-2.5,0.7-4.8,2.2-7s3.6-3.7,6.4-4.6l11.6-3.5v-1.2H12.8v-6.2h47.3v6.2H43.2v1.2
			H45c3.6,0,6.6,1,9.1,3.1c2.5,2,3.7,4.7,3.7,7.9c0,2.6-1,4.8-3.1,6.6S50.2,43,47.2,43v-6.2c0.9,0,1.6-0.3,2.3-0.9
			c0.6-0.6,0.9-1.5,0.9-2.8c0-1.2-0.5-2.2-1.6-3.1c-1-0.8-2.4-1.3-4-1.3h-1.7V51h-7.2V51.2z M35.9,29.1l-9.1,2.8
			c-2.5,0.8-3.8,2.4-3.8,4.8v1.5l12.9,6.1V29.1z"/>
		<path class="st0" d="M65.1,46.5c-2.2-2.6-3.3-5.7-3.3-9.4v-4.9c0-4.2,1-7.8,3-10.7h-5.9v-6.2h16.8v6.2c-1.8,0-3.4,0.9-4.7,2.7
			c-1.3,1.8-1.9,4-1.9,6.8v7.2c0,2.1,0.5,3.7,1.4,4.8c1,1.1,2.1,1.8,3.6,2v6.2C70.3,50.6,67.2,49,65.1,46.5z"/>
		<path class="st0" d="M89.5,51.2c-3.1,0-5.8-1.1-8.1-3.3C79.2,45.7,78,43,78,39.8V21.5h-3.5v-6.2h33.3v6.2H85.4v1.7l10.5,2.2
			c2.8,0.6,5,1.9,6.6,3.9c1.7,2,2.5,4.4,2.5,7.1c0,4.1-1.4,7.5-4.3,10.4s-6.3,4.3-10.4,4.3L89.5,51.2L89.5,51.2z M95.6,42.5
			c1.4-1.7,2.2-3.7,2.2-6c0-1.4-0.4-2.5-1.1-3.4s-1.5-1.4-2.4-1.6l-8.9-1.8v10.2c0,1.4,0.4,2.6,1.2,3.7s1.8,1.6,2.9,1.6h0.9
			C92.4,45,94.2,44.2,95.6,42.5z"/>
		<path class="st0" d="M131,51.2V39c0-2.1-0.8-4-2.3-5.5s-3.4-2.3-5.6-2.3h-0.7c-1.5,0-2.8,0.5-3.9,1.6s-1.6,2.3-1.6,3.8v0.6
			c0,1.2,0.4,2.2,1.3,3.1c0.9,0.9,1.9,1.3,3.1,1.3h2.3v6.2h-2.3c-3.2,0-6-1-8.3-3.1s-3.4-4.5-3.4-7.5v-0.6c0-3.2,1.2-6,3.7-8.2
			s5.5-3.4,9-3.4c3.4,0,6.3,0.7,8.6,2.1v-5.6h-24.2v-6.2h35v6.2h-3.5v29.6H131V51.2z"/>
	</g>
	<g>
		<path class="st0" d="M24.4,102.4V96c0-1.7-0.6-3.1-1.9-4.2c-1.3-1.1-2.8-1.7-4.7-1.7H14c-1.1,0-2,0.4-2.8,1.1
			c-0.7,0.7-1.1,1.5-1.1,2.4s0.3,1.5,0.9,2c0.6,0.5,1.3,0.7,2.1,0.7h3.4v6.1H13c-2.6,0-5.1-0.8-7.1-2.4c-2-1.6-3.1-3.7-3.1-6.4
			s1.1-5,3.2-6.9c1.6-1.4,3.6-2.3,5.9-2.6c-0.2-0.9-0.7-1.6-1.5-2.3c-1.1-0.9-2.4-1.3-3.9-1.3H2.9v-7.2H0v-6.1h34.9v6.1h-3.4v29.1
			C31.5,102.4,24.4,102.4,24.4,102.4z M24.4,73.3H10V75c2.6,0.7,4.9,2.1,6.6,4.1c1.2,1.5,2,3.1,2.3,5c1.9,0.1,3.7,0.6,5.4,1.5V73.3
			H24.4z"/>
		<path class="st0" d="M37.2,102.4V73.3h-3.4v-6.1h14v6.1h-3.4v29.1C44.3,102.4,37.2,102.4,37.2,102.4z"/>
		<path class="st0" d="M79.4,102.4c-3,0-5.6-1.1-7.8-3.2c-2-2-3.1-4.5-3.2-7.4c-0.2-0.7-0.6-1.3-1.1-1.8c-0.8-0.8-1.8-1.2-2.9-1.3
			c-0.3,2.5-1.4,4.8-3.2,6.7c-2.3,2.3-5.1,3.5-8.3,3.5h-3.6v-6.1h2.6c1.8,0,3.1-0.6,4.1-1.7s1.5-2.5,1.5-4v-0.8c0-1.6-0.5-2.9-1.5-4
			c-1-1.1-2.4-1.7-4.2-1.7h-2.5v-7.1h-2.8v-6.1H87v-1.1c0-0.7-0.2-1.3-0.7-1.8c-0.5-0.5-1.1-0.7-1.8-0.7h-7.9
			c-2.2,0-4.1-0.8-5.8-2.3c-1.6-1.6-2.3-3.5-2.3-5.8h7.2v0.6c0,1,0.5,1.5,1.5,1.5h7.4c2.6,0,5,0.9,6.9,2.8c1.9,1.9,2.8,4.1,2.8,6.9
			h2.8v6.1H75.7v18.1c0,1.3,0.4,2.5,1.1,3.5c0.7,1,1.6,1.5,2.7,1.5h1.6c1.6,0,3-0.6,4.2-1.7c1.2-1.2,1.7-2.6,1.7-4.2v-0.8
			c0-1.3-0.5-2.3-1.4-3.2c-0.9-0.9-2-1.3-3.3-1.3h-2.2v-6.1h2.2c3.2,0,6.1,1,8.4,3.1c2.3,2,3.4,4.6,3.4,7.6v0.8
			c0,3.3-1.3,6.2-3.8,8.5c-2.6,2.3-5.7,3.5-9.3,3.5h-1.6V102.4z M68.5,73.3H56.2V75c2.3,0.7,4.3,2.1,6,4.1c0.8,1.1,1.4,2.2,1.8,3.5
			c1.6,0,3.1,0.3,4.5,0.8L68.5,73.3L68.5,73.3z"/>
		<path class="st0" d="M99.3,102.4V73.3h-3.4v-6.1h14v6.1h-3.4v29.1C106.4,102.4,99.3,102.4,99.3,102.4z"/>
		<path class="st0" d="M131.2,102.4l-19.8-9.3v-3.7c0-2.4,0.7-4.8,2.1-6.9c1.4-2.1,3.5-3.6,6.4-4.6l11.3-3.4v-1.1h-22.7v-6.1h33.2
			v6.1h-3.4v29.1h-7.1V102.4z M115.9,106.1c-0.8-0.7-1.1-1.6-1.1-2.7s0.4-1.9,1.1-2.7c0.8-0.8,1.7-1.1,2.7-1.1s1.9,0.4,2.7,1.1
			c0.7,0.8,1.1,1.7,1.1,2.7s-0.4,1.9-1.1,2.7c-0.7,0.7-1.6,1.1-2.7,1.1C117.5,107.2,116.6,106.8,115.9,106.1z M131.2,80.8l-8.9,2.7
			c-2.5,0.7-3.7,2.3-3.7,4.7v1.5l12.6,6V80.8z"/>
	</g>
</g>
</svg>
