<?xml version="1.0" encoding="UTF-8"?>
<svg id="Layer_2" data-name="Layer 2" xmlns="http://www.w3.org/2000/svg" viewBox="0 0 71.11 71.05">
  <defs>
    <style>
      .cls-1 {
        fill: #fff;
      }

      .cls-2 {
        fill: #00a45d;
      }

      .cls-3 {
        fill: #007a41;
      }
    </style>
  </defs>
  <g id="Layer_1-2" data-name="Layer 1">
    <g>
      <path class="cls-1" d="M35.55,0C15.95,0,0,15.94,0,35.52s15.95,35.53,35.55,35.53,35.56-15.94,35.56-35.53S55.16,0,35.55,0Z"/>
      <g>
        <path class="cls-3" d="M35.55,69.64c18.86,0,34.15-15.27,34.15-34.11S54.41,1.41,35.55,1.41,1.41,16.68,1.41,35.53s15.29,34.11,34.14,34.11h0Z"/>
        <path class="cls-1" d="M66.98,43.1s-10.53,1.41-15.08-1.57c-.15-.16-3.9-3.69-6.21-3.65-.23,.03-3.61,.07-10.73,2.63-.08,.03-5.49,2.8-9.69,3.72-.11,0-3.77,.2-9.53-.77-.14-.01-1.9-1.27-11.12,.14-.28,.05-.48-.19-.42,.16,.86,4.75,9.62,24.45,33.32,23.99,2.65-.06,22.87-2.46,29.46-24.65h0Z"/>
        <path class="cls-2" d="M50.73,61.1s-2.84-4.27-8.43-3.69c1.95-.45-3.35,.11-8.79,4.96-.18,.16-3.55,2.97-4.04,2.24,.71,1.08,11.36,3.79,21.26-3.51h0Z"/>
        <path class="cls-2" d="M63.17,47.3l-1.53,2.89s-6.1-1.69-7.81-1.49c-2.8,.35-4.63,.56-7.47,1.05-.22,.03-1.95-.08-1.54-2.25,.08-.31,.29-1.55-1.59-1.26-.28,.05-2-.36-7.36,3-.21,.13-3.77,1.73-5.17,2.76-.48,.49-3.86,2.79-7.42,1.4-.21-.08-2.15-.38-6.24-3.16-.18-.11-5.45-2.39-8.56-1.58-.48,.12-1.61-2.94-1.61-3.13,0-.18,2.69-1.01,11.95,.97,.15,.01,6.09,2.25,11.97,0,.22-.09,5.31-2.1,7.61-3.57,.15-.09,7.45-3.25,8.91-1.84,.18,.16,2,.82,.97,3-.1,.23-1.65,.48-.08,1.98,.16,.15,1,.92,7.22,0,.13-.02,9.02-.56,7.75,1.24h0Z"/>
        <path class="cls-2" d="M59.32,53.78s-3.31-2.32-9.51-1.64c-.21,.06-3.49,.5-5.69-.23-.18-.04-3.98-1.64-7.43,.05-.18,.11-1.87,1.16-5.04,3.12-1.23,.86-1.84,1.9-10.35,.79-.29,0-4.82-.05-7.94-.19-.23,0,2.6,2.69,2.6,2.69,0,0,3.89-.17,7.64,.86,.33,.09,6.46,1.4,8.51,.48,.23-.07,1.49-.07,5.09-2.54,.08-.03,3.59-2.65,5.83-2.79-1.32,.13,3.97-.83,11.81,4.34,.16,.11,3.65-3.17,4.49-4.93h0Z"/>
        <path class="cls-1" d="M24.01,14.82h-6.79c.78,1.33,.17,2.65,.11,2.85-3.21,10.14-4.77,14-4.78,14.06-.31,1.14-.85,1.8-.85,1.8h4.3c-.62-1.01-.41-1.54-.41-1.62,.32-1.57,.74-2.19,.74-2.19h6.86c1.32,2.52,.75,3.77,.75,3.77h6.52c-.67-.74-1.12-1.97-1.12-1.97l-5.34-16.71h0Zm-7.01,12.87l2.82-8.49,2.85,8.49h-5.67Z"/>
        <path class="cls-1" d="M42.71,29.83c-1.9,1.17-2.52,.94-2.62,.94-2.38,.01-3.84-2.69-3.88-2.83-1.66-4.19-.03-7.64,.02-7.74,.99-2.73,3.73-3.09,3.85-3.09,3.02,0,4.52,2.78,4.52,2.78v-3.83c-4.18-2.45-7.36-1.67-7.47-1.64-8.96,2.21-6.66,12.59-6.62,12.68,2.42,7.77,8.79,6.53,8.92,6.52,3.29-.41,5.17-2.1,5.17-2.1v-3.77c-1.39,1.95-1.86,2.04-1.89,2.07h0Z"/>
        <path class="cls-1" d="M52.4,32.06l-.02-15.35c-.02-1.09,.32-1.93,.32-1.93h-5.75c.35,.93,.29,1.42,.29,1.42v15.43c.14,.94-.41,1.76-.41,1.76l5.98-.02c-.25-.4-.4-1.31-.4-1.31h0Z"/>
      </g>
    </g>
  </g>
</svg>