<?xml version="1.0" encoding="utf-8"?>
<!-- Generator: Adobe Illustrator 27.0.0, SVG Export Plug-In . SVG Version: 6.00 Build 0)  -->
<svg version="1.1" id="Layer_2_00000004527469184346345030000011018729143780113337_"
	 xmlns="http://www.w3.org/2000/svg" xmlns:xlink="http://www.w3.org/1999/xlink" x="0px" y="0px" viewBox="0 0 200.9 195.1"
	 style="enable-background:new 0 0 200.9 195.1;" xml:space="preserve">
<style type="text/css">
	.st0{fill:#1C52B0;}
</style>
<g>
	<g>
		<g>
			<path class="st0" d="M4.7,55V20.4H0v-4.6h4.7v-2.2c0-2.4,0.6-4.6,1.8-6.7C7.7,4.8,9.3,3.2,11.3,2s3.6-1.8,4.8-1.9
				C17.3,0,18.1,0,18.6,0c1.5,0,3,0.1,4.5,0.3l17.3,2.3l-0.6,4.5C26.9,5.4,20.1,4.6,19.3,4.6c-2.2,0-3.9,0.4-5.2,1.3
				c-2.8,1.8-4.2,4.2-4.2,7.1v2.8h4.7v4.6H9.9V55H4.7z"/>
			<path class="st0" d="M39.1,55L17,44.6V39c0-2.6,0.7-4.9,2.1-6.9s3.5-3.5,6.4-4.4l13.6-4.1v-3.2h-26v-4.6H63v4.6H44.4v3.2h2.8
				c3.6,0,6.6,1,9,3.1s3.7,4.6,3.7,7.6v1.2c0,2.6-1,4.9-3,6.7s-4.4,2.7-7.2,2.7v-4.6c1.3,0,2.5-0.5,3.5-1.4s1.4-2.1,1.4-3.4v-1.2
				c0-1.7-0.7-3.1-2.1-4.3c-1.4-1.2-3.2-1.8-5.3-1.8h-2.8V55H39.1z M39.1,28.4L27.3,32c-3.4,1-5,3.1-5,6.3v3.6l16.9,7.9V28.4H39.1z"
				/>
			<path class="st0" d="M68.9,50.2c-2.2-2.6-3.3-5.7-3.3-9.2v-7.8c0-5.2,1.3-9.3,4-12.5l0.2-0.3h-8.1v-4.6h17.8v4.6
				c-2.4,0-4.4,1.2-6.1,3.4c-1.7,2.2-2.5,5.1-2.5,8.7v9.1c0,2.2,0.6,4.1,1.9,5.8c1.3,1.6,2.9,2.6,4.9,3.1V55
				C74,54.4,71.1,52.8,68.9,50.2z"/>
			<path class="st0" d="M94.1,55c-3.1,0-5.7-1.1-7.9-3.2C84,49.6,82.9,47,82.9,44V20.4h-4.7v-4.6h35.4v4.6H88.1v4.1l12.6,2.5
				c2.6,0.5,4.8,1.8,6.5,3.8s2.5,4.3,2.5,6.9v2.6c0,4-1.4,7.5-4.3,10.4C102.5,53.6,99.1,55,95,55C95,55,94.1,55,94.1,55z
				 M101.7,47.4c1.8-2,2.8-4.4,2.8-7.1v-2.6c0-1.6-0.5-2.9-1.4-4.1c-0.9-1.2-2.1-1.9-3.5-2.1l-11.4-2.3v14.7c0,1.8,0.6,3.3,1.7,4.6
				c1.2,1.3,2.6,1.9,4.2,1.9H95C97.6,50.4,99.9,49.4,101.7,47.4z"/>
			<path class="st0" d="M119.6,50.2c-2.2-2.6-3.3-5.7-3.3-9.2v-7.8c0-5.2,1.3-9.3,4-12.5l0.2-0.3h-8.1v-4.6h17.8v4.6
				c-2.4,0-4.4,1.2-6.1,3.4s-2.5,5.1-2.5,8.7v9.1c0,2.2,0.6,4.1,1.9,5.8c1.3,1.6,2.9,2.6,4.9,3.1V55
				C124.7,54.4,121.7,52.8,119.6,50.2z"/>
			<path class="st0" d="M156.2,55V40.7c0-2.7-1-5.1-2.9-7c-1.9-2-4.3-2.9-7.1-2.9h-0.8c-2,0-3.8,0.7-5.2,2.1
				c-1.4,1.4-2.2,3.2-2.2,5.2v1.3c0,1.7,0.6,3.2,1.8,4.4s2.7,1.8,4.3,1.8h2.5v4.6h-2.5c-3.1,0-5.8-1-8-3.2c-2.2-2.1-3.4-4.6-3.4-7.6
				V38c0-3.3,1.2-6.1,3.7-8.4s5.4-3.5,8.9-3.5h0.8c3.8,0,7.1,1.2,10,3.7v-9.4h-27.3v-4.6H166v4.6h-4.6V55H156.2z"/>
			<path class="st0" d="M190.9,55l-22.1-10.4V39c0-2.6,0.7-4.9,2.1-6.9s3.5-3.5,6.4-4.4l13.6-4.1v-3.2h-26v-4.6h36v4.6h-4.7V55
				H190.9z M174.5,58.4c-0.7-0.6-1-1.4-1-2.3s0.3-1.6,1-2.3s1.4-1,2.3-1s1.6,0.3,2.3,1c0.6,0.7,0.9,1.4,0.9,2.3s-0.3,1.6-0.9,2.3
				c-0.6,0.6-1.4,0.9-2.3,0.9S175.2,59.1,174.5,58.4z M190.9,28.4L179.1,32c-3.4,1-5,3.1-5,6.3v3.6l16.9,7.9V28.4H190.9z"/>
		</g>
		<g>
			<path class="st0" d="M26,114V97.8L4.6,106L3,101.7l7.1-2.8c0-1.7-0.6-3.2-1.9-4.5s-2.8-1.9-4.5-1.9H1.1v-5.4
				c0-3.4,1.2-6.2,3.6-8.7c2.4-2.4,5.3-3.6,8.7-3.6h2.7c3.8,0,7.1,1.2,9.9,3.7v-3.7h10v4.6h-4.7V114H26z M26,92.7v-3.5
				c0-2.7-1-5.1-2.9-7s-4.3-2.9-7-2.9h-2.7c-1.9,0-3.6,0.7-5,2.1s-2.1,3.1-2.1,5v1.7c2.5,0.6,4.6,1.9,6.4,4c1.2,1.4,2,3,2.4,4.8
				L26,92.7z"/>
			<path class="st0" d="M39.4,114V79.4h-4.7v-4.6h14.7v4.6h-4.7V114H39.4z"/>
			<path class="st0" d="M73.9,114l-22.1-10.4v-5.7c0-2.6,0.7-4.9,2.1-6.9c1.4-2,3.5-3.5,6.4-4.4l13.6-4.1v-3.2h-26v-4.6h36v4.6h-4.8
				V114H73.9z M57.5,117.4c-0.7-0.6-1-1.4-1-2.3s0.3-1.6,1-2.3c0.7-0.7,1.4-1,2.3-1s1.6,0.3,2.3,1c0.6,0.7,0.9,1.4,0.9,2.3
				s-0.3,1.6-0.9,2.3s-1.4,0.9-2.3,0.9S58.2,118,57.5,117.4z M73.9,87.4L62,91c-3.4,1-5,3.1-5,6.3v3.6l16.9,7.9V87.4z"/>
			<path class="st0" d="M89.8,109.1c-2.2-2.6-3.3-5.7-3.3-9.2v-7.8c0-5.2,1.3-9.3,4-12.5l0.2-0.3h-8.1v-4.6h17.8v4.6
				c-2.4,0-4.4,1.2-6.1,3.4c-1.7,2.2-2.5,5.1-2.5,8.7v9.1c0,2.2,0.6,4.2,1.9,5.8c1.3,1.6,2.9,2.6,4.9,3.1v4.6
				C94.9,113.4,92,111.8,89.8,109.1z"/>
			<path class="st0" d="M125.5,114l-22.4-6.7v-6.1c0-2.4,0.7-4.5,2.2-6.5s3.4-3.3,5.7-4.1l2.3-0.7l-10.2-10.5h-4v-4.6h50.2v4.6
				h-39.5l8.5,8.9l1.4,4.4l-7.1,2.2c-1.3,0.5-2.3,1.2-3.1,2.2c-0.8,1-1.2,2.2-1.2,3.4v3.5l17.2,5.2V85h9.3c3.2,0,5.8,1,8.1,3.1
				c2.2,2.1,3.3,4.8,3.3,8.2c0,2.6-1,4.8-3,6.7c-2,1.8-4.4,2.8-7.2,2.8v-4.6c1.3,0,2.5-0.5,3.5-1.4s1.4-2.3,1.4-4s-0.6-3.1-1.8-4.3
				c-1.2-1.2-2.7-1.8-4.4-1.8h-4.1V114H125.5z"/>
			<path class="st0" d="M179.8,120.3c-2.1,0-4.1-0.4-6-1.3s-3.5-2.1-4.8-3.7s-1.9-3.7-1.9-6.3c0-1.3,0.1-2.5,0.4-3.5l-15.7-6v-4.4
				c0-2.3,0.7-4.3,2.2-6s3.6-2.9,6.4-3.6l13.6-3.3v-2.8h-26v-4.6h41v-1.6c0-1.2-0.4-2.2-1.2-3s-1.8-1.2-3-1.2H176
				c-2.1,0-3.9-0.7-5.4-2.2s-2.3-3.3-2.3-5.5h5.2c0,2.1,0.9,3.1,2.8,3.1h8.5c2.6,0,4.8,0.9,6.7,2.8c1.8,1.8,2.8,4.1,2.8,6.7v0.9h5.5
				v4.6h-20.5v2.8h3.3c3.2,0,6,0.8,8.2,2.4s3.4,3.7,3.4,6.3v0.7c0,2.3-0.9,4.2-2.7,5.7s-4.1,2.3-6.8,2.3V95c1.4,0,2.5-0.4,3.3-1.1
				s1.2-1.5,1.2-2.3v-0.7c0-1.1-0.6-2.1-1.8-2.9s-2.8-1.2-4.7-1.2h-3.3v3.8c0,4.2-1.3,8-4,11.5c-0.8,1-1.5,2-2,3s-0.8,2.3-0.8,3.9
				c0,2.3,0.8,4,2.4,5.1c1.6,1.1,3.3,1.6,5,1.6h4.1c1.7,0,3.2-0.4,4.6-1.2c1.4-0.8,2-1.9,2-3.2c0-2.6-1.9-3.8-5.7-3.8h-3.7v-4.6h3.4
				c3.4,0,6.1,0.7,8.2,2.2c2,1.5,3.1,3.6,3.1,6.2s-1.2,4.7-3.6,6.5c-2.4,1.7-5.2,2.6-8.3,2.6L179.8,120.3L179.8,120.3z M173,96.4
				c0.7-1.4,1.1-3,1.1-4.9v-4.6l-11.9,3c-3.3,0.8-5,2.4-5,4.7v2l12.6,4.9C171.3,99.2,172.3,97.6,173,96.4z"/>
		</g>
		<g>
			<path class="st0" d="M31,189.9v-19.5l-25.7,9.9l-1.9-5.2l8.5-3.4c0-2-0.7-3.8-2.3-5.4c-1.6-1.6-3.4-2.3-5.4-2.3H1.1v-6.5
				c0-4.1,1.4-7.5,4.3-10.5c2.9-2.9,6.4-4.3,10.5-4.3h3.2c4.6,0,8.5,1.4,11.9,4.4v-4.4h12v5.5h-5.6v41.6H31z M31,164.3v-4.2
				c0-3.2-1.2-6.1-3.5-8.4s-5.2-3.5-8.4-3.5h-3.2c-2.3,0-4.3,0.8-6,2.5c-1.7,1.7-2.5,3.7-2.5,6v2c3,0.7,5.5,2.3,7.7,4.8
				c1.4,1.7,2.4,3.6,2.9,5.8L31,164.3z"/>
			<path class="st0" d="M47.3,189.9v-41.6h-5.6v-5.5h17.7v5.5h-5.6v41.6H47.3z"/>
			<path class="st0" d="M76.1,189.9c-3.6,0-6.7-1.3-9.3-3.8c-2.5-2.5-3.8-5.6-3.8-9.3v-28.5h-5.6v-5.5H88v-1.9
				c0-1.4-0.5-2.6-1.4-3.6c-1-1-2.2-1.4-3.6-1.4H72.4c-2.5,0-4.7-0.8-6.5-2.6s-2.8-4-2.8-6.6h6.3c0,2.5,1.1,3.7,3.4,3.7H83
				c3.1,0,5.8,1.1,8.1,3.4c2.2,2.2,3.4,4.9,3.4,8.1v1.1h4.7v5.5H69.5v28.5c0,2,0.7,3.8,2,5.3c1.3,1.4,2.9,2.3,4.8,2.3h2.2
				c2.6,0,4.9-1,6.9-2.9c1.9-1.9,2.8-4.2,2.8-6.9V173c0-2.2-0.7-4.1-2.3-5.5c-1.6-1.6-3.4-2.3-5.5-2.3h-3.4v-5.5h3.4
				c3.8,0,7.2,1.3,10,3.8c2.8,2.6,4.2,5.8,4.2,9.5v1.7c0,4.2-1.6,7.8-4.7,10.8c-3.1,3-6.9,4.4-11.3,4.4
				C78.5,189.9,76.1,189.9,76.1,189.9z"/>
			<path class="st0" d="M83.9,135.4L98,121.2l4.1,4l-14.2,14.2L83.9,135.4z"/>
			<path class="st0" d="M130.2,189.9v-17.3c0-3.2-1.2-6.1-3.5-8.4c-2.3-2.3-5.2-3.5-8.5-3.5h-1c-2.4,0-4.6,0.8-6.3,2.5
				c-1.7,1.7-2.6,3.8-2.6,6.3v1.6c0,2,0.7,3.8,2.2,5.3c1.4,1.4,3.2,2.2,5.2,2.2h3v5.5h-3c-3.7,0-7-1.2-9.6-3.8
				c-2.6-2.5-4.1-5.5-4.1-9.1v-1.6c0-4,1.4-7.3,4.4-10.1c3-2.8,6.5-4.2,10.7-4.2h1c4.6,0,8.5,1.4,12,4.4v-11.3H97.3v-5.5h45v5.5
				h-5.6v41.6H130.2z"/>
			<path class="st0" d="M146.4,189.9v-41.6h-5.6v-5.5h17.7v5.5h-5.6v41.6H146.4z"/>
			<path class="st0" d="M187.8,189.9l-26.6-12.5v-6.9c0-3.1,0.8-5.9,2.5-8.3c1.7-2.4,4.2-4.2,7.7-5.3l16.3-4.9v-3.8h-31.3v-5.5h43.3
				v5.5h-5.6v41.7H187.8z M168.2,194c-0.8-0.7-1.2-1.7-1.2-2.8c0-1.1,0.4-1.9,1.2-2.8s1.7-1.2,2.8-1.2c1.1,0,1.9,0.4,2.8,1.2
				c0.7,0.8,1.1,1.7,1.1,2.8c0,1.1-0.4,1.9-1.1,2.8c-0.7,0.7-1.7,1.1-2.8,1.1C169.9,195.1,168.9,194.8,168.2,194z M187.8,158
				l-14.2,4.3c-4.1,1.2-6,3.7-6,7.6v4.3l20.3,9.5V158H187.8z"/>
		</g>
	</g>
</g>
</svg>
