<?xml version="1.0" encoding="utf-8"?>
<!-- Generator: Adobe Illustrator 27.0.0, SVG Export Plug-In . SVG Version: 6.00 Build 0)  -->
<svg version="1.1" id="Layer_2_00000043422419658319542840000017948969281754156172_"
	 xmlns="http://www.w3.org/2000/svg" xmlns:xlink="http://www.w3.org/1999/xlink" x="0px" y="0px" viewBox="0 0 166.8 47.5"
	 style="enable-background:new 0 0 166.8 47.5;" xml:space="preserve">
<style type="text/css">
	.st0{fill:#FFFFFF;}
	.st1{fill:url(#SVGID_1_);}
	.st2{fill:url(#SVGID_00000001655984012523311150000003012090810368826299_);}
	.st3{fill:url(#SVGID_00000124123099966209208170000000615227058719085211_);}
	.st4{fill:none;}
</style>
<path class="st0" d="M23.7,47.5C10.6,47.5,0,36.8,0,23.7S10.6,0,23.7,0h119.4c13.1,0,23.7,10.6,23.7,23.7s-10.6,23.7-23.7,23.7
	L23.7,47.5L23.7,47.5z"/>
<linearGradient id="SVGID_1_" gradientUnits="userSpaceOnUse" x1="3" y1="1053.7004" x2="163.8" y2="1053.7004" gradientTransform="matrix(1 0 0 1 0 -1030)">
	<stop  offset="0" style="stop-color:#00A45D"/>
	<stop  offset="1" style="stop-color:#007A41"/>
</linearGradient>
<path class="st1" d="M23.7,3h119.4c11.4,0,20.7,9.3,20.7,20.7l0,0c0,11.4-9.3,20.7-20.7,20.7H23.7C12.3,44.5,3,35.2,3,23.7l0,0
	C3,12.3,12.3,3,23.7,3z"/>
<linearGradient id="SVGID_00000075841405876478965350000009952141412715035529_" gradientUnits="userSpaceOnUse" x1="123.2979" y1="1053.6965" x2="157.8979" y2="1053.6965" gradientTransform="matrix(1 0 0 1 2.124065e-03 -1029.9965)">
	<stop  offset="0" style="stop-color:#00A45D"/>
	<stop  offset="1" style="stop-color:#007A41"/>
</linearGradient>
<circle style="fill:url(#SVGID_00000075841405876478965350000009952141412715035529_);" cx="140.6" cy="23.7" r="17.3"/>
<linearGradient id="SVGID_00000003788015533934560720000011971224657963087533_" gradientUnits="userSpaceOnUse" x1="126.2804" y1="1053.7096" x2="155.0047" y2="1053.7096" gradientTransform="matrix(1 0 0 1 -7.341883e-04 -1030.0096)">
	<stop  offset="5.967124e-07" style="stop-color:#007A41"/>
	<stop  offset="1" style="stop-color:#00A45D"/>
</linearGradient>
<circle style="fill:url(#SVGID_00000003788015533934560720000011971224657963087533_);" cx="140.6" cy="23.7" r="14.4"/>
<line class="st4" x1="138.1" y1="31.3" x2="146.4" y2="23.8"/>
<path class="st0" d="M138.1,32.3c-0.3,0-0.5-0.1-0.7-0.3c-0.4-0.4-0.4-1,0.1-1.4l8.2-7.6c0.4-0.4,1-0.4,1.4,0.1s0.4,1-0.1,1.4
	l-8.2,7.6C138.6,32.2,138.4,32.3,138.1,32.3L138.1,32.3z"/>
<line class="st4" x1="138.1" y1="16.1" x2="146.4" y2="23.7"/>
<path class="st0" d="M146.4,24.7c-0.2,0-0.5-0.1-0.7-0.3l-8.2-7.6c-0.4-0.4-0.4-1-0.1-1.4c0.4-0.4,1-0.4,1.4-0.1L147,23
	c0.4,0.4,0.4,1,0.1,1.4C146.9,24.6,146.6,24.7,146.4,24.7L146.4,24.7z"/>
<path class="st0" d="M30.5,29.8h-6.3V17.9h6.1c2.8,0,4.4,1.2,4.4,3.1c0,1.4-1,2.4-2.3,2.7C34,24,35,25.2,35,26.6
	C35,28.5,33.4,29.8,30.5,29.8L30.5,29.8z M29.7,20.2h-2.2v2.5h2.2c1.1,0,1.7-0.4,1.7-1.2S30.8,20.2,29.7,20.2L29.7,20.2z M29.9,24.8
	h-2.4v2.6H30c1.1,0,1.7-0.4,1.7-1.3S31,24.8,29.9,24.8z"/>
<path class="st0" d="M36.9,17.9h3.3V25c0,1.4,0.8,2.2,2.4,2.2S45,26.4,45,25v-7.1h3.3V25c0,3.3-2.6,4.9-5.8,4.9s-5.6-1.6-5.6-4.9
	V17.9L36.9,17.9z"/>
<path class="st0" d="M49.5,17.9h3.8l2.6,5l2.6-5h3.7l-4.7,8v3.9h-3.3v-3.9L49.5,17.9L49.5,17.9z"/>
<path class="st0" d="M79.8,17.9v11.9h-3.3L71,22.4v7.4h-3.3V17.9H71l5.5,7.4v-7.4H79.8z"/>
<path class="st0" d="M88.6,29.9c-3.8,0-7-2.5-7-6.1s3.1-6.1,7-6.1s6.9,2.5,6.9,6.1S92.4,29.9,88.6,29.9z M88.6,27.3
	c2.2,0,3.6-1.4,3.6-3.5s-1.4-3.5-3.6-3.5S85,21.7,85,23.8S86.4,27.3,88.6,27.3z"/>
<path class="st0" d="M96.6,17.9h3.5l1.9,8.7l2.4-8.7h3.6l2.3,8.7l2-8.7h3.6l-3.5,11.9h-4l-2.2-7.8l-2.2,7.8h-4
	C100.1,29.8,96.6,17.9,96.6,17.9z"/>
</svg>
