<?xml version="1.0" encoding="UTF-8"?>
<svg id="Layer_2" data-name="Layer 2" xmlns="http://www.w3.org/2000/svg" viewBox="0 0 140.16 56.74">
  <defs>
    <style>
      .cls-1 {
        fill: #fff;
      }

      .cls-2 {
        fill: #68696c;
      }

      .cls-3 {
        fill: #ca1979;
      }

      .cls-4 {
        fill: #c91979;
      }

      .cls-5 {
        fill: #414141;
      }

      .cls-6 {
        fill: #898b8d;
      }

      .cls-7 {
        fill: none;
      }
    </style>
  </defs>
  <g id="Layer_1-2" data-name="Layer 1">
    <g>
      <g>
        <g>
          <path class="cls-6" d="M10.97,30.97l-.61-.03c.46-8.6,7.06-15.55,15.36-16.17l.13,.55c-8,.6-14.45,7.36-14.89,15.66Z"/>
          <path class="cls-6" d="M35.52,30.96c0-4.77-3.87-8.64-8.64-8.64s-8.64,3.87-8.64,8.64,3.87,8.64,8.64,8.64,8.64-3.87,8.64-8.64Z"/>
          <path class="cls-7" d="M18.57,28.47c.02-.07,.05-.13,.07-.2-.02,.07-.05,.13-.07,.2Z"/>
          <path class="cls-7" d="M18.82,27.78c.04-.1,.08-.2,.13-.3-.04,.1-.09,.2-.13,.3Z"/>
          <path class="cls-7" d="M18.34,29.42c.02-.08,.03-.16,.05-.24-.02,.08-.03,.16-.05,.24Z"/>
          <path class="cls-7" d="M18.23,30.21c0-.08,.02-.16,.03-.24,0,.08-.02,.16-.03,.24Z"/>
          <path class="cls-7" d="M19.13,27.11c.05-.1,.1-.2,.15-.3-.05,.1-.1,.2-.15,.3Z"/>
          <path class="cls-5" d="M33.78,36.15c1.13-1.43,1.74-3.3,1.74-5.19,0-4.74-3.89-8.64-8.64-8.64-2.99,0-5.72,1.61-7.26,3.94h2.89s8.64,.1,11.27,9.89Z"/>
          <path class="cls-1" d="M19.62,26.26c-.12,.18-.23,.36-.34,.55,.11-.19,.22-.37,.34-.55h0Z"/>
          <path class="cls-1" d="M18.95,27.48c.06-.13,.12-.25,.18-.37-.06,.12-.12,.25-.18,.37Z"/>
          <path class="cls-1" d="M18.26,29.97c.02-.19,.05-.37,.08-.55-.03,.18-.06,.37-.08,.55Z"/>
          <path class="cls-1" d="M18.39,29.18c.05-.24,.11-.47,.18-.7-.07,.23-.13,.47-.18,.7Z"/>
          <path class="cls-1" d="M18.19,30.99c0-.27,.02-.53,.04-.79-.02,.26-.04,.52-.04,.79Z"/>
          <path class="cls-1" d="M18.64,28.27c.05-.17,.11-.33,.18-.49-.07,.16-.12,.32-.18,.49Z"/>
          <path class="cls-6" d="M11.6,27.18h0s0-.02,0-.04c0-.02,0-.03,.01-.05,.08-.31,.16-.58,.22-.77,0-.02,.01-.04,.02-.06,0,0,0,0,0,0H4.13v14.55c0,1.19,.85,2.66,1.89,3.26l5.1,2.66V30.67c-.07-1.1,.22-2.51,.48-3.49Z"/>
          <path class="cls-4" d="M48.9,19.56c0-1.19-.85-2.66-1.88-3.26L28.63,5.7c-1.03-.6-2.73-.6-3.76,0L8.23,15.32H26.8c8.64,0,15.68,7.03,15.68,15.68,0,1.44-.2,2.83-.56,4.15-1.83,6.64-7.91,11.52-15.12,11.52-3.17,0-6.13-.95-8.6-2.58v12.39l2.8-4.06,3.9,2.25c1.03,.6,2.73,.6,3.76,0l18.38-10.62c1.03-.6,1.88-2.06,1.88-3.26V19.56Z"/>
          <path class="cls-5" d="M13.7,22.39H0l4.13,3.86h7.73c.22-.69,.48-1.36,.79-2,.25-.52,.53-1.02,.83-1.51,.07-.12,.14-.24,.22-.35Z"/>
        </g>
        <g>
          <g>
            <path class="cls-2" d="M94.2,3.81c.01-.43,.03-.82,.05-1.19h-6.99c.03-.21,.07-.41,.13-.59,.11-.32,.26-.58,.45-.78,.19-.2,.42-.36,.68-.46,.26-.1,.55-.15,.85-.15,.18,0,.35,.03,.51,.08,.16,.05,.3,.12,.43,.19,.13,.08,.24,.16,.34,.24,.1,.09,.18,.16,.23,.22l.29-.02s0-.03,0-.08c0-.05,0-.08,0-.11,.02-.09,.05-.2,.08-.33,.04-.13,.09-.26,.15-.38-.28-.14-.6-.25-.96-.34-.36-.09-.72-.14-1.09-.14-.49,0-.94,.07-1.34,.21-.4,.14-.75,.35-1.04,.62-.29,.27-.52,.6-.68,.99-.1,.25-.16,.52-.2,.81-.02,0-.03,0-.04,0,0,.11,0,.24,.01,.36,0,.06-.01,.11-.01,.17,0,.07,.01,.12,.02,.19h.01c0,.16,.01,.3,.02,.47,.01,.43,.02,.82,.02,1.18v1.44c0,.36,0,.75-.02,1.18-.01,.43-.03,.82-.05,1.19,.13-.02,.25-.04,.35-.06,.1-.01,.18-.02,.24-.02s.14,0,.24,.02c.1,.01,.22,.03,.35,.06-.02-.37-.04-.76-.05-1.19-.02-.43-.02-.82-.02-1.18v-1.44c0-.36,0-.75,.02-1.18,0-.17,.01-.31,.02-.47h.93c.12,.02,.24,.05,.35,.09,.26,.09,.49,.23,.68,.41,.19,.18,.34,.42,.45,.71,.11,.29,.16,.63,.16,1.02s-.06,.74-.16,1.03c-.11,.29-.26,.52-.45,.71-.19,.19-.42,.33-.68,.42-.12,.04-.25,.07-.38,.09v.6c.32-.03,.62-.07,.9-.17,.39-.13,.73-.32,1.02-.56,.29-.25,.51-.55,.67-.91,.06-.13,.1-.28,.13-.42,.12,.03,.24,.06,.36,.1,.45,.16,.84,.38,1.15,.66,.32,.28,.55,.61,.71,1.02,.02,.05,.03,.12,.04,.18,0,.16-.01,.33-.02,.48,.13-.02,.25-.04,.35-.06,.1-.01,.18-.02,.24-.02s.14,0,.24,.02c.1,.01,.22,.03,.35,.06-.02-.37-.04-.76-.05-1.19-.02-.43-.02-.82-.02-1.18v-1.44c0-.36,0-.75,.02-1.18Zm-2.09,2.03c-.36-.12-.76-.21-1.17-.28,0-.45-.08-.85-.24-1.2-.16-.36-.39-.66-.68-.9-.05-.04-.12-.08-.17-.12h3.27c0,.16,.01,.3,.02,.47,.01,.43,.02,.82,.02,1.18v1.31c-.32-.17-.66-.33-1.04-.46Z"/>
            <path class="cls-2" d="M83.55,2.63c-.28-.13-.59-.24-.93-.33-.36-.09-.72-.14-1.09-.14-.49,0-.94,.07-1.34,.21-.4,.14-.75,.35-1.04,.62-.29,.27-.52,.6-.68,.99-.16,.39-.24,.84-.24,1.34,0,.07,.01,.12,.02,.19h1.16c0-.06-.01-.12-.01-.19,0-.43,.05-.81,.16-1.12,.11-.32,.26-.58,.45-.78,.19-.2,.42-.35,.68-.46,.26-.1,.55-.15,.85-.15,.18,0,.35,.03,.51,.08,.15,.05,.28,.11,.4,.18,.01,.23,.02,.46,.03,.72,.01,.42,.02,.8,.02,1.15v1.4c0,.35,0,.73-.02,1.15,0,.09,0,.17-.01,.26l-.75-.16c-.57-.12-1.2-.26-1.87-.42-.68-.15-1.3-.3-1.87-.44-.03,.13-.07,.25-.1,.35-.03,.1-.07,.18-.1,.23-.03,.06-.09,.13-.17,.22-.08,.09-.17,.19-.29,.31,.6,.1,1.24,.22,1.93,.35,.69,.13,1.33,.25,1.9,.37l2.3,.48s.09,.02,.13,.03v-.42s.02,0,.03,0c-.01-.2-.02-.42-.03-.64v-.03h0c0-.16-.01-.31-.02-.49-.02-.41-.02-.8-.02-1.15v-1.4c0-.35,0-.73,.02-1.15,.01-.41,.03-.79,.05-1.14h0s0,0,0,0c0,0,0,0,0-.01-.01,0-.02,0-.03,0Z"/>
            <path class="cls-2" d="M112.93,2.62h-1.33c0-.3-.08-.56-.24-.8-.16-.24-.39-.43-.68-.59-.29-.16-.64-.28-1.04-.37-.4-.09-.85-.13-1.34-.13-.37,0-.74,.03-1.09,.08-.36,.05-.68,.12-.96,.2,.06,.07,.12,.32,.15,.4,.04,.08,.07,.14,.08,.2,0,.01,0,.04,0,.06,0,.03,.06,.18,.06,.18l.24-.12c.06-.04,.14-.08,.23-.13,.1-.05,.21-.1,.34-.15,.13-.05,.27-.09,.43-.12,.16-.03,.33-.05,.51-.05,.31,0,.59,.03,.85,.09,.26,.06,.49,.15,.68,.27,.19,.12,.34,.28,.45,.47,.11,.19,.16,.24,.16,.49h-13.56v.72h6.16c0,.16,.01,.3,.02,.47,.01,.43,.02,.82,.02,1.18v1.44c0,.1,0,.21,0,.31-.18-.13-.37-.26-.58-.34-.12-.05-.24-.08-.37-.11,0-.05,.01-.11,0-.16h0c-.01-.83-.28-1.55-.77-2.02-.42-.41-.97-.6-1.59-.57-.07,0-.13,.01-.2,.02-.26,.03-.49,.11-.77,.39-.36,.36-.52,.72-.52,1.22,0,.33,.11,.65,.33,.93,.23,.3,.53,.46,.87,.46,.09,0,.2-.02,.33-.06l.11-.03,.37-1.06-.37,.05c-.16,.02-.31-.01-.4-.09-.05-.05-.08-.11-.08-.19,0-.17,.06-.3,.2-.4,.14-.1,.31-.14,.53-.14s.41,.05,.57,.17c.11,.07,.19,.15,.26,.25,.18,.25,.28,.6,.28,1.01,0,.47-.09,.84-.29,1.12-.24,.36-.51,.58-.77,.63-.01,0-.03,0-.04,.01-.02,0-.04,.01-.05,.01-.52,0-1.03-.24-1.55-.73-.49-.47-.79-1.2-.98-1.7-.01-.04-.02-.08-.04-.11-.02-.07-.05-.14-.07-.22l-.02-.06-.59,.47-.02,.02v.03s.82,2.61,2.41,3.19c.26,.09,.5,.13,.71,.13,.49,0,.89-.2,1.16-.41,.47-.36,.77-.87,.89-1.3,.25,.12,.47,.29,.66,.52,.13,.16,.24,.37,.34,.6,0,.18-.01,.38-.02,.54,.07-.01,.13-.02,.19-.03,0,.01,0,.02,0,.03v-.03s.1-.02,.15-.02c.1-.01,.18-.02,.24-.02s.14,0,.24,.02c.1,.01,.22,.03,.35,.06-.02-.37-.04-.76-.05-1.19-.02-.43-.02-.82-.02-1.18v-1.44c0-.36,0-.75,.02-1.18,0-.17,.01-.31,.02-.47h.95c0,.16,.01,.3,.02,.47,.01,.43,.02,.82,.02,1.18v1.44c0,.36,0,.75-.02,1.18-.01,.43-.03,.82-.05,1.19,.13-.02,.25-.04,.35-.06,.1-.01,.18-.02,.24-.02s.14,0,.24,.02c.1,.01,.22,.03,.35,.06-.02-.37-.04-.76-.05-1.19-.02-.43-.02-.82-.02-1.18v-1.44c0-.36,0-.75,.02-1.18,0-.17,.01-.31,.02-.47h3.29c-.47,0-.91,.09-1.26,.29-.48,.27-.78,.7-.87,1.24-.01,.06-.02,.12-.02,.17-.02,.23,.01,.44,.23,.75,.28,.39,.6,.61,1.08,.72,.32,.08,.65,.05,.97-.07,.34-.13,.56-.35,.62-.64,.02-.08,.02-.18,0-.3v-.1s-.97-.56-.97-.56l-.02,.33c0,.14-.08,.26-.17,.32-.06,.04-.12,.04-.2,.03-.17-.04-.28-.12-.35-.27-.07-.14-.08-.3-.03-.49,.04-.19,.13-.34,.28-.45,.09-.08,.19-.13,.29-.17,.28-.1,.64-.1,1.04,0,.46,.11,.8,.27,1.03,.5,.3,.29,.47,.58,.46,.8,0,.01,0,.03,0,.04,0,.02,0,.03,0,.05-.1,.45-.44,.83-1.02,1.16-.55,.31-1.33,.41-1.86,.46-.04,0-.08,0-.12,0-.07,0-1.02-.05-1.1-.05h-.06s0,.33,0,.33c0,0,0,0,0,0v.88c.54,.07,1.44,.11,1.81,.17,.8,.12,1.5,.31,2.08,.55,.59,.25,1.04,.56,1.38,.95,.05,.06,.07,.13,.11,.19v-1.68c-.58-.37-1.21-.58-1.98-.69-.27-.04-.63-.08-1.02-.13,.91-.2,1.98-.56,2.45-1.21,.14-.2,.23-.4,.27-.58,.1-.43-.02-.81-.16-1.09-.34-.64-1-1.09-1.44-1.19-.21-.07-.41-.13-.62-.18h0c-.2-.04-.39-.07-.58-.08h3.15v-.72Z"/>
          </g>
          <g>
            <path class="cls-3" d="M77.69,20.88h0v2.64c-1.07-1.62-3.23-2.66-5.09-2.66h-6.01c-1.11,0-2.13,.51-2.79,1.41-.66,.89-.86,2.02-.55,3.04l2,7.38,12.44-3.54v8.52h-14.21v3.11h17.32V23.99h4.59v16.79h3.11V23.99h2.27v3.47h1.48c1.13,.08,2.31,.68,3.11,1.65,.43,.51,1.08,1.54,.99,2.9-2.25,.35-3.99,2.29-3.99,4.64v4.13h6.17v-3.13h-3.06v-1c0-.89,.72-1.61,1.61-1.61h7.6v5.74h3.11v-15.94c0-2.18-1.77-3.95-3.95-3.95h-15.34v-1.16c0-.89,.72-1.61,1.61-1.61h10.09v-3.11h-10.09c-2.6,0-4.72,2.12-4.72,4.72v1.15m-17.96,7.95l-1.19-4.38c-.05-.15,0-.26,.06-.33,.05-.07,.14-.15,.3-.15h6.01c1.17,0,2.56,.93,2.65,1.58h.01c0,.18,0,.48,0,1.05l-7.84,2.23Zm32.04,3.1c.05-1.73-.54-3.41-1.73-4.82-1.03-1.23-2.4-2.09-3.86-2.51v-.6h9.96c.47,0,.85,.38,.85,.85v7.09h-5.21Z"/>
            <path class="cls-3" d="M58.01,40.78h3.11V22.61h0v-2.88c0-.89,.72-1.61,1.61-1.61h10.17v-3.11h-10.17c-2.6,0-4.72,2.12-4.72,4.72v21.05Z"/>
            <path class="cls-3" d="M132.29,40.78v-3.96c0-.3,.01-.59,.02-.86,.05-1.04,.09-2.22-.69-3.11,.57-.75,.92-1.68,.92-2.69v-5.39c0-2.16-1.75-3.91-3.91-3.91h-10.65v8.81h5v-3.11h-1.89v-2.6h7.54c.44,0,.8,.36,.8,.8v5.39c0,.76-.62,1.38-1.38,1.38h-5.08v3.42s6.23,0,6.23,0v2.7h-1.17s-10.78,0-10.78,0c-.89,0-1.62-.73-1.62-1.61v-10.17h-3.11v10.17c0,2.6,2.12,4.72,4.72,4.72h15.03Z"/>
          </g>
          <g>
            <path class="cls-3" d="M75.79,49.3h0s-1.89,0-1.89,0h0s-1,0-1,0v.54c-.37-.32-.88-.52-1.34-.52h-2.87c-.36,0-.69,.17-.9,.45-.21,.29-.28,.65-.18,.96l.63,2.69,4.66-1.07v1.59h-.86c-.4,0-.74,.19-.99,.47-.24-.28-.58-.47-.98-.47h-1.08c-.81,0-1.47,.57-1.47,1.27v.35c0,.63,.51,1.14,1.14,1.14h1.02v-.9h-1.02c-.13,0-.24-.11-.24-.24v-.35c0-.18,.23-.37,.57-.37h1.08c.22,0,.4,.18,.4,.4v.42h1.16v-.48c0-.18,.2-.35,.4-.35h.86v1.89h1v-1.49h.01v-4.94h1.01v6.44h1v-7.43h-.12Zm-6.81,2.92l-.4-1.71,.11-.17v-.02s2.87,0,2.87,0c.38,0,.83,.3,.86,.51,0,.05,0,.16,0,.6l-3.44,.79Z"/>
            <path class="cls-3" d="M117.64,49.33c-.67,0-1.22,.55-1.22,1.22v.11h0v1h1.17c1.26,0,1.39,1.28,1.39,1.93,0,.55-.14,1.83-1.39,1.83h-1.3v1h1.3c1.21,0,2.06-.78,2.31-2.09l1.82,.73v1.66h1v-7.41h-5.07Zm2.33,4.02c-.05-1.63-.97-2.69-2.38-2.69h-.16v-.11c0-.12,.1-.22,.22-.22h4.07v3.66l-1.74-.65Z"/>
            <g>
              <path class="cls-3" d="M87.41,46.98h-3.28c-.84,0-1.52,.68-1.52,1.52v8.18h1v-8.18c0-.29,.23-.52,.52-.52h3.28v-1Z"/>
              <path class="cls-3" d="M91.86,52.76h-.78v1h.78c.25,0,.45,.2,.45,.45v1.07c0,.25-.2,.45-.45,.45h-1.77v-5.53h2.97l-.02-1.7c0-.84-.68-1.52-1.52-1.52h-2.58v1h2.58c.29,0,.52,.23,.52,.52v.81h-6.53c-.63,0-1.13,.48-1.23,1.1v.9s1.1,0,1.1,0c.31,0,1.26,0,1.26,1.56,0,1.48-.95,1.48-1.27,1.48l-.69,.02v.86s.71,0,.71,0c1.13,0,1.87-.63,2.09-1.76l1.63,.58v2.69h2.77c.8,0,1.45-.65,1.45-1.45v-1.07c0-.8-.65-1.45-1.45-1.45Zm-2.77,.34l-1.58-.56c-.09-1.34-.86-2.13-2.14-2.13h-.19c.07-.12,.18-.2,.31-.2h3.59v2.89Z"/>
            </g>
            <path class="cls-3" d="M106.15,56.71v-4.58h1.4c.29,0,.52,.23,.52,.52v.63s-1.18,0-1.18,0v1h1.11c.59,0,1.07-.48,1.07-1.07v-.57c0-.84-.68-1.52-1.52-1.52h-1.4v-.48c0-.75-.61-1.37-1.37-1.37h-4.16v1h4.16c.2,0,.36,.16,.36,.36v.4h-2.1c-1.56,0-2.83,1.27-2.83,2.93,0,1.54,1.25,2.74,2.83,2.74h3.1Zm-4.93-2.84c0-1.01,.82-1.83,1.83-1.83h2.1v3.66h-2.1c-1.04,0-1.83-.75-1.83-1.83Z"/>
          </g>
        </g>
      </g>
      <g>
        <path class="cls-4" d="M133.89,20.17h-1.36v-.48h3.28v.48h-1.36v3.55h-.55v-3.55Z"/>
        <path class="cls-4" d="M136.82,23.73h-.53v-4.04h.79l1.16,3.44h0l1.15-3.44h.78v4.04h-.53v-3.42h0l-1.14,3.42h-.53l-1.14-3.41h0v3.41Z"/>
      </g>
    </g>
  </g>
</svg>