<?xml version="1.0" encoding="UTF-8" standalone="no"?>
<!-- Created with Inkscape (http://www.inkscape.org/) -->

<svg
   xmlns:dc="http://purl.org/dc/elements/1.1/"
   xmlns:cc="http://creativecommons.org/ns#"
   xmlns:rdf="http://www.w3.org/1999/02/22-rdf-syntax-ns#"
   xmlns:svg="http://www.w3.org/2000/svg"
   xmlns="http://www.w3.org/2000/svg"
   xmlns:sodipodi="http://sodipodi.sourceforge.net/DTD/sodipodi-0.dtd"
   xmlns:inkscape="http://www.inkscape.org/namespaces/inkscape"
   width="340.80045"
   height="196.89999"
   viewBox="0 0 90.170119 52.096457"
   version="1.1"
   id="svg5768"
   inkscape:version="0.92.0 r15299"
   sodipodi:docname="rak ceramics.svg">
  <defs
     id="defs5762" />
  <sodipodi:namedview
     id="base"
     pagecolor="#ffffff"
     bordercolor="#666666"
     borderopacity="1.0"
     inkscape:pageopacity="0.0"
     inkscape:pageshadow="2"
     inkscape:zoom="0.35"
     inkscape:cx="169.40023"
     inkscape:cy="97.450003"
     inkscape:document-units="mm"
     inkscape:current-layer="layer1"
     showgrid="false"
     fit-margin-top="0"
     fit-margin-left="0"
     fit-margin-right="0"
     fit-margin-bottom="0"
     units="px"
     inkscape:window-width="1280"
     inkscape:window-height="744"
     inkscape:window-x="-4"
     inkscape:window-y="-4"
     inkscape:window-maximized="1" />
  <metadata
     id="metadata5765">
    <rdf:RDF>
      <cc:Work
         rdf:about="">
        <dc:format>image/svg+xml</dc:format>
        <dc:type
           rdf:resource="http://purl.org/dc/dcmitype/StillImage" />
        <dc:title></dc:title>
      </cc:Work>
    </rdf:RDF>
  </metadata>
  <g
     inkscape:label="Layer 1"
     inkscape:groupmode="layer"
     id="layer1"
     transform="translate(32.347263,-122.52052)">
    <path
       id="path5743"
       d="m 51.28753,122.81156 -14.76375,16.00729 v -16.00729 h -4.153961 v 30.7975 h 4.153961 v -8.91646 l 4.471461,-4.81542 11.138958,13.73188 h 5.212292 L 43.74691,136.88739 56.790871,122.81156 Z m -44.5822917,18.83833 5.6620807,-12.46188 5.741461,12.46188 -5.688542,2.83104 z m 4.1804217,-18.83833 -14.1022907,30.7975 h 4.497911 l 3.757089,-8.30792 7.4083297,3.67771 7.38187,-3.67771 3.81,8.28146 h 4.445 l -14.2875,-30.7975 H 10.88566 Z m -35.718751,44.44999 -0.55563,0.71438 c -0.635,-0.635 -1.53458,-1.03188 -2.43416,-1.03188 -1.85209,0 -3.33375,1.42875 -3.33375,3.22792 0,1.79917 1.48166,3.22792 3.33375,3.22792 0.89958,0 1.7727,-0.37042 2.43416,-0.97896 l 0.58209,0.635 c -0.82021,0.76729 -1.905,1.27 -3.04271,1.27 -2.38125,0 -4.23334,-1.85208 -4.23334,-4.15396 0,-2.30187 1.905,-4.1275 4.28625,-4.1275 1.0848,0.0265 2.16959,0.50271 2.96334,1.21708 m 6.72041,-0.26458 v 2.69875 h 4.15396 v 0.89958 h -4.15396 v 2.83105 h 4.78896 v 0.87312 h -5.715 v -8.20208 h 5.55625 v 0.89958 z m 14.4727113,4.70958 c -0.185211,0 -0.370411,0.0265 -0.55562,0.0265 h -2.169591 v 2.59292 h -0.92604 v -8.20208 h 3.12209 c 2.06375,0 3.22791095,1.00541 3.22791095,2.75166 0,1.34938 -0.66146095,2.27542 -1.85208095,2.67229 l 1.93146095,2.77813 H -1.9201807 Z m -0.55562,-0.89958 c 1.481659,0 2.328328,-0.66146 2.328328,-1.93146 0,-1.24354 -0.846669,-1.87854 -2.328328,-1.87854 h -2.169591 v 3.81 z m 9.710209,1.42875 -0.92605,2.06375 h -1.005409 l 3.677709,-8.20208 h 0.97895 l 3.6777107,8.20208 h -1.03187 l -0.9260407,-2.06375 z m 2.2225,-5.08 -1.825631,4.15396 h 3.677711 z m 17.0920797,7.14375 v -6.74687 l -2.989789,5.9002 h -0.55563 l -2.989792,-5.9002 v 6.74687 H 17.39441 v -8.20208 h 1.164159 l 3.01625,5.90021 2.9898,-5.90021 h 1.1377 v 8.20208 z m 7.85812,-8.20208 h 0.92605 v 8.20208 h -0.92605 z m 14.04938,1.16416 -0.55563,0.71438 c -0.635,-0.635 -1.534578,-1.03188 -2.434159,-1.03188 -1.852091,0 -3.33375,1.42875 -3.33375,3.22792 0,1.79917 1.481659,3.22792 3.33375,3.22792 0.899581,0 1.772709,-0.37042 2.434159,-0.97896 l 0.582091,0.635 c -0.820211,0.76729 -1.905,1.27 -3.042711,1.27 -2.38125,0 -4.23333,-1.85208 -4.23333,-4.15396 0,-2.30187 1.905,-4.1275 4.28625,-4.1275 1.084791,0.0265 2.16958,0.50271 2.96333,1.21708 m 10.63625,-0.42333 -0.39688,0.87313 c -0.740828,-0.50271 -1.613948,-0.68792 -2.275409,-0.68792 -1.058341,0 -1.74625,0.39687 -1.74625,1.08479 0,2.11667 4.630211,1.00542 4.60375,3.99521 0,1.37583 -1.217091,2.24896 -2.963341,2.24896 -1.19062,0 -2.38125,-0.50271 -3.148539,-1.24354 l 0.423339,-0.84667 c 0.767291,0.74083 1.799161,1.16417 2.7252,1.16417 1.19063,0 1.931461,-0.47625 1.931461,-1.27 0,-2.16959 -4.60375,-1.00542 -4.60375,-3.9423 0,-1.29645 1.137711,-2.11666 2.831039,-2.11666 0.9525,-0.0265 1.931461,0.26458 2.61938,0.74083 M -7.2647607,153.60906 -14.805381,143.26385 c 0.34395,-0.10584 0.55562,-0.18521 0.55562,-0.18521 3.91583,-1.64042 6.1383303,-5.08 6.1383303,-9.71021 0,-6.61458 -4.5508303,-10.55687 -12.1443703,-10.55687 h -11.66813 v 30.7975 h 3.99521 v -9.47209 h 7.64646 c 0.52917,0 0.13229,-0.0265 1.08479,-0.0529 l 6.95854,9.525 z m -20.6639603,-13.4673 v -13.30854 h 7.64646 c 3.70417,0 8.14917,1.13771 8.14917,6.56167 0,5.58271 -4.41854,6.74687 -8.14917,6.74687 z"
       class="st0"
       inkscape:connector-curvature="0"
       style="stroke-width:0.26458332" />
  </g>
</svg>
